<svg width="30" height="40" fill="none" xmlns="http://www.w3.org/2000/svg"><g fill="#fff"><mask id="a"><path fill-rule="evenodd" clip-rule="evenodd" d="M27 20c0 4.936-1.504 9.29-3.793 12.342C20.918 35.393 17.987 37 15 37c-2.986 0-5.918-1.607-8.207-4.658C4.504 29.29 3 24.937 3 20s1.504-9.29 3.793-12.342C9.082 4.607 12.013 3 15 3c2.986 0 5.918 1.607 8.207 4.658C25.496 10.71 27 15.063 27 20zm3 0c0 11.046-6.716 20-15 20-8.284 0-15-8.954-15-20S6.716 0 15 0c8.284 0 15 8.954 15 20z"/></mask><path d="M23.207 32.342l2.4 1.8-2.4-1.8zm-16.414 0l-2.4 1.8 2.4-1.8zm0-24.684l2.4 1.8-2.4-1.8zm16.414 0l2.4-1.8-2.4 1.8zm2.4 26.484C28.32 30.523 30 25.523 30 20h-6c0 4.35-1.33 8.057-3.193 10.542l4.8 3.6zM15 40c4.137 0 7.889-2.234 10.607-5.858l-4.8-3.6C18.948 33.02 16.835 34 15 34v6zM4.393 34.142C7.111 37.766 10.863 40 15 40v-6c-1.835 0-3.948-.98-5.807-3.458l-4.8 3.6zM0 20c0 5.523 1.68 10.523 4.393 14.142l4.8-3.6C7.33 28.057 6 24.35 6 20H0zM4.393 5.858C1.68 9.477 0 14.477 0 20h6c0-4.35 1.33-8.057 3.193-10.542l-4.8-3.6zM15 0C10.863 0 7.111 2.234 4.393 5.858l4.8 3.6C11.052 6.98 13.165 6 15 6V0zm10.607 5.858C22.889 2.234 19.137 0 15 0v6c1.835 0 3.948.98 5.807 3.458l4.8-3.6zM30 20c0-5.523-1.68-10.523-4.393-14.142l-4.8 3.6C22.67 11.943 24 15.65 24 20h6zM15 43c5.298 0 9.866-2.87 13.007-7.058C31.147 31.756 33 26.11 33 20h-6c0 4.936-1.504 9.29-3.793 12.342C20.918 35.393 17.987 37 15 37v6zM-3 20c0 6.11 1.853 11.756 4.993 15.942C5.134 40.13 9.702 43 15 43v-6c-2.986 0-5.918-1.607-8.207-4.658C4.504 29.29 3 24.937 3 20h-6zM15-3C9.702-3 5.134-.13 1.993 4.058-1.147 8.245-3 13.89-3 20h6c0-4.937 1.504-9.29 3.793-12.342C9.082 4.607 12.013 3 15 3v-6zm18 23c0-6.11-1.853-11.755-4.993-15.942C24.866-.13 20.298-3 15-3v6c2.986 0 5.918 1.607 8.207 4.658C25.496 10.71 27 15.063 27 20h6z" mask="url(#a)"/></g></svg>